<svg width="1366" height="1426" viewBox="0 0 1366 1426" fill="none" xmlns="http://www.w3.org/2000/svg">
<path d="M1422.49 0.174744C1331.9 4.94078 1245.72 81.564 1213.82 170.286C1170.91 289.07 1209.79 422.519 1184.11 546.436C1164.68 640.29 1106.74 725.345 1026.42 778.138C946.11 830.931 844.894 849.996 751.013 830.198C699.671 819.566 651.264 797.936 600.289 787.304C548.948 776.672 491.372 778.138 449.932 810.034C386.122 858.428 371.086 966.214 293.34 984.178C217.795 1001.78 136.016 915.62 68.9049 955.215C10.9624 989.31 23.0644 1087.93 -34.8781 1122.39C-69.717 1143.29 -115.558 1129.73 -150.03 1108.46C-184.869 1087.2 -215.673 1058.6 -254.546 1046.14C-340.727 1019.01 -437.175 1094.16 -447.81 1183.62C-458.445 1273.44 -396.469 1361.43 -314.689 1399.19C-232.909 1436.95 -136.094 1431.45 -50.2806 1403.59C39.9337 1374.26 123.18 1321.1 217.428 1310.83C317.177 1299.84 414.726 1338.33 511.542 1365.83C608.357 1392.96 718.374 1407.99 803.821 1354.83C869.465 1314.13 909.805 1239.34 979.116 1205.25C1055.03 1167.49 1145.24 1187.65 1228.86 1203.05C1312.47 1218.45 1408.18 1225.05 1471.99 1168.95C1548.27 1101.5 1538 980.145 1510.13 882.258C1488.86 807.468 1454.39 726.079 1468.33 647.622C1482.26 569.166 1519.67 497.309 1551.21 425.085C1599.25 315.466 1651.32 135.823 1543.87 43.4356C1505 10.8066 1463.19 -1.65835 1422.49 0.174744Z" fill="url(#paint0_linear)"/>
<defs>
<linearGradient id="paint0_linear" x1="640.364" y1="803.751" x2="1090.77" y2="1603.26" gradientUnits="userSpaceOnUse">
<stop stop-color="#FFA600"/>
<stop offset="1" stop-color="#FF009F"/>
</linearGradient>
</defs>
</svg>
