<svg width="1900" height="1956" viewBox="0 0 1366 1956" fill="none" xmlns="http://www.w3.org/2000/svg">
<path d="M-247.697 480.719C-237.452 596.89 -167.44 705.373 -66.6918 763.459C26.3721 816.42 136.512 825.816 242.383 844.608C348.254 862.546 459.248 895.006 526.698 978.718C590.733 1058.16 573.07 1145.06 591 1245C608.93 1344.94 605.705 1506.31 694.5 1555C776.465 1600.27 948.474 1551.03 1033 1591.18C1114.11 1629.62 1161.92 1713.33 1210.59 1788.5C1259.26 1863.67 1322.44 1942.26 1412.09 1954.21C1481.24 1964.47 1552.11 1929.44 1599.92 1878.19C1647.73 1826.94 1676.76 1761.17 1698.96 1694.54C1804.83 1381.05 1784.34 1026.55 1644.32 727.583C1596.51 625.079 1534.18 527.7 1509.42 417.508C1483.81 303.045 1496.61 170.644 1419.77 81.807C1354.03 4.92897 1238.77 -13.0095 1139.72 8.34548C1040.68 29.7005 952.743 83.5154 863.094 131.351C773.445 179.186 676.966 221.896 576.218 219.333C490.838 216.771 409.727 180.894 331.178 147.581C180.056 83.5155 42.5939 63.8687 -103.406 152.706C-207.569 216.771 -257.943 363.693 -247.697 480.719Z" fill="url(#paint0_linear)"/>
<defs>
<linearGradient id="paint0_linear" x1="524.954" y1="1232.46" x2="1410.63" y2="361.486" gradientUnits="userSpaceOnUse">
<stop stop-color="#FFA600"/>
<stop offset="1" stop-color="#FF267B"/>
</linearGradient>
</defs>
</svg>
